<mxfile host="app.diagrams.net" modified="2021-06-09T19:23:12.369Z" agent="5.0 (Macintosh; Intel Mac OS X 10_13_6) AppleWebKit/537.36 (KHTML, like Gecko) Chrome/91.0.4472.77 Safari/537.36" etag="ys477IRfgsMBxse83xYF" version="14.6.13" type="github">
  <diagram id="OciIh8RDyiTNSbO1kP23" name="Page-1">
    <mxGraphModel dx="1796" dy="614" grid="1" gridSize="10" guides="1" tooltips="1" connect="1" arrows="1" fold="1" page="1" pageScale="1" pageWidth="850" pageHeight="1100" math="0" shadow="0">
      <root>
        <mxCell id="0" />
        <mxCell id="1" parent="0" />
        <mxCell id="_urB2lo7H6_L3gV6wOiC-1" value="pastebin/ notes store" style="text;html=1;align=center;verticalAlign=middle;resizable=0;points=[];autosize=1;strokeColor=none;" vertex="1" parent="1">
          <mxGeometry x="-5" y="20" width="130" height="20" as="geometry" />
        </mxCell>
        <mxCell id="_urB2lo7H6_L3gV6wOiC-27" style="edgeStyle=orthogonalEdgeStyle;rounded=0;orthogonalLoop=1;jettySize=auto;html=1;exitX=1;exitY=0.5;exitDx=0;exitDy=0;entryX=0.145;entryY=1;entryDx=0;entryDy=-4.35;entryPerimeter=0;" edge="1" parent="1" source="_urB2lo7H6_L3gV6wOiC-2" target="_urB2lo7H6_L3gV6wOiC-4">
          <mxGeometry relative="1" as="geometry" />
        </mxCell>
        <mxCell id="_urB2lo7H6_L3gV6wOiC-31" value="3" style="edgeLabel;html=1;align=center;verticalAlign=middle;resizable=0;points=[];" vertex="1" connectable="0" parent="_urB2lo7H6_L3gV6wOiC-27">
          <mxGeometry x="-0.2352" y="3" relative="1" as="geometry">
            <mxPoint as="offset" />
          </mxGeometry>
        </mxCell>
        <mxCell id="_urB2lo7H6_L3gV6wOiC-2" value="download note" style="rounded=0;whiteSpace=wrap;html=1;" vertex="1" parent="1">
          <mxGeometry x="280" y="310" width="120" height="60" as="geometry" />
        </mxCell>
        <mxCell id="_urB2lo7H6_L3gV6wOiC-18" style="edgeStyle=orthogonalEdgeStyle;rounded=0;orthogonalLoop=1;jettySize=auto;html=1;exitX=1;exitY=0.5;exitDx=0;exitDy=0;" edge="1" parent="1" source="_urB2lo7H6_L3gV6wOiC-3" target="_urB2lo7H6_L3gV6wOiC-4">
          <mxGeometry relative="1" as="geometry">
            <Array as="points">
              <mxPoint x="460" y="180" />
              <mxPoint x="460" y="250" />
            </Array>
          </mxGeometry>
        </mxCell>
        <mxCell id="_urB2lo7H6_L3gV6wOiC-38" value="2" style="edgeLabel;html=1;align=center;verticalAlign=middle;resizable=0;points=[];" vertex="1" connectable="0" parent="_urB2lo7H6_L3gV6wOiC-18">
          <mxGeometry x="0.7053" relative="1" as="geometry">
            <mxPoint as="offset" />
          </mxGeometry>
        </mxCell>
        <mxCell id="_urB2lo7H6_L3gV6wOiC-3" value="upload note" style="rounded=0;whiteSpace=wrap;html=1;" vertex="1" parent="1">
          <mxGeometry x="280" y="150" width="120" height="60" as="geometry" />
        </mxCell>
        <mxCell id="_urB2lo7H6_L3gV6wOiC-4" value="no sql" style="shape=cylinder3;whiteSpace=wrap;html=1;boundedLbl=1;backgroundOutline=1;size=15;" vertex="1" parent="1">
          <mxGeometry x="520" y="210" width="60" height="80" as="geometry" />
        </mxCell>
        <mxCell id="_urB2lo7H6_L3gV6wOiC-6" value="Notes-table&lt;br&gt;---------&lt;br&gt;user_id&lt;br&gt;note_id&lt;br&gt;content" style="text;html=1;strokeColor=none;fillColor=none;align=center;verticalAlign=middle;whiteSpace=wrap;rounded=0;" vertex="1" parent="1">
          <mxGeometry x="590" y="205" width="90" height="90" as="geometry" />
        </mxCell>
        <mxCell id="_urB2lo7H6_L3gV6wOiC-7" value="Note-share table&lt;br&gt;-------------&lt;br&gt;node id&lt;br&gt;users" style="text;html=1;align=center;verticalAlign=middle;resizable=0;points=[];autosize=1;strokeColor=none;" vertex="1" parent="1">
          <mxGeometry x="630" y="360" width="100" height="60" as="geometry" />
        </mxCell>
        <mxCell id="_urB2lo7H6_L3gV6wOiC-8" value="k-v store" style="shape=cylinder3;whiteSpace=wrap;html=1;boundedLbl=1;backgroundOutline=1;size=15;" vertex="1" parent="1">
          <mxGeometry x="560" y="340" width="60" height="80" as="geometry" />
        </mxCell>
        <mxCell id="_urB2lo7H6_L3gV6wOiC-10" value="Since availablility is more imp that contistency, casandra" style="text;html=1;strokeColor=none;fillColor=none;align=center;verticalAlign=middle;whiteSpace=wrap;rounded=0;" vertex="1" parent="1">
          <mxGeometry x="680" y="205" width="80" height="75" as="geometry" />
        </mxCell>
        <mxCell id="_urB2lo7H6_L3gV6wOiC-12" value="reverse-store&lt;br&gt;---------&lt;br&gt;user_id&lt;br&gt;Note_id" style="text;html=1;strokeColor=none;fillColor=none;align=center;verticalAlign=middle;whiteSpace=wrap;rounded=0;" vertex="1" parent="1">
          <mxGeometry x="620" y="430" width="100" height="60" as="geometry" />
        </mxCell>
        <mxCell id="_urB2lo7H6_L3gV6wOiC-13" value="for quick lookup both ways, user and note ids are stored in reverse keys, 8B of note Id and 8B of userid&lt;br&gt;each note has 4 viewers avg and each person has 20 notes&lt;br&gt;8*25B per row=200B&lt;br&gt;200MB/day=" style="text;html=1;strokeColor=none;fillColor=none;align=center;verticalAlign=middle;whiteSpace=wrap;rounded=0;" vertex="1" parent="1">
          <mxGeometry x="490" y="480" width="150" height="170" as="geometry" />
        </mxCell>
        <mxCell id="_urB2lo7H6_L3gV6wOiC-15" style="edgeStyle=orthogonalEdgeStyle;rounded=0;orthogonalLoop=1;jettySize=auto;html=1;exitX=1;exitY=0.5;exitDx=0;exitDy=0;entryX=-0.017;entryY=0.4;entryDx=0;entryDy=0;entryPerimeter=0;" edge="1" parent="1" source="_urB2lo7H6_L3gV6wOiC-14" target="_urB2lo7H6_L3gV6wOiC-3">
          <mxGeometry relative="1" as="geometry" />
        </mxCell>
        <mxCell id="_urB2lo7H6_L3gV6wOiC-16" value="create(user-id, text)" style="edgeLabel;html=1;align=center;verticalAlign=middle;resizable=0;points=[];" vertex="1" connectable="0" parent="_urB2lo7H6_L3gV6wOiC-15">
          <mxGeometry x="0.1608" y="3" relative="1" as="geometry">
            <mxPoint as="offset" />
          </mxGeometry>
        </mxCell>
        <mxCell id="_urB2lo7H6_L3gV6wOiC-36" value="1" style="edgeLabel;html=1;align=center;verticalAlign=middle;resizable=0;points=[];" vertex="1" connectable="0" parent="_urB2lo7H6_L3gV6wOiC-15">
          <mxGeometry x="0.6718" y="-4" relative="1" as="geometry">
            <mxPoint as="offset" />
          </mxGeometry>
        </mxCell>
        <mxCell id="_urB2lo7H6_L3gV6wOiC-23" style="edgeStyle=orthogonalEdgeStyle;rounded=0;orthogonalLoop=1;jettySize=auto;html=1;exitX=1;exitY=0.75;exitDx=0;exitDy=0;entryX=0;entryY=0.25;entryDx=0;entryDy=0;" edge="1" parent="1" source="_urB2lo7H6_L3gV6wOiC-14" target="_urB2lo7H6_L3gV6wOiC-2">
          <mxGeometry relative="1" as="geometry" />
        </mxCell>
        <mxCell id="_urB2lo7H6_L3gV6wOiC-24" value="view(note-id,user-id)" style="edgeLabel;html=1;align=center;verticalAlign=middle;resizable=0;points=[];" vertex="1" connectable="0" parent="_urB2lo7H6_L3gV6wOiC-23">
          <mxGeometry x="0.1357" y="-3" relative="1" as="geometry">
            <mxPoint as="offset" />
          </mxGeometry>
        </mxCell>
        <mxCell id="_urB2lo7H6_L3gV6wOiC-33" value="0" style="edgeLabel;html=1;align=center;verticalAlign=middle;resizable=0;points=[];" vertex="1" connectable="0" parent="_urB2lo7H6_L3gV6wOiC-23">
          <mxGeometry x="-0.0857" y="-1" relative="1" as="geometry">
            <mxPoint as="offset" />
          </mxGeometry>
        </mxCell>
        <mxCell id="_urB2lo7H6_L3gV6wOiC-14" value="user" style="rounded=0;whiteSpace=wrap;html=1;" vertex="1" parent="1">
          <mxGeometry x="10" y="210" width="60" height="60" as="geometry" />
        </mxCell>
        <mxCell id="_urB2lo7H6_L3gV6wOiC-19" value="" style="endArrow=classic;html=1;entryX=0;entryY=0.5;entryDx=0;entryDy=0;entryPerimeter=0;" edge="1" parent="1" target="_urB2lo7H6_L3gV6wOiC-8">
          <mxGeometry width="50" height="50" relative="1" as="geometry">
            <mxPoint x="460" y="250" as="sourcePoint" />
            <mxPoint x="510" y="330" as="targetPoint" />
          </mxGeometry>
        </mxCell>
        <mxCell id="_urB2lo7H6_L3gV6wOiC-39" value="3" style="edgeLabel;html=1;align=center;verticalAlign=middle;resizable=0;points=[];" vertex="1" connectable="0" parent="_urB2lo7H6_L3gV6wOiC-19">
          <mxGeometry x="-0.7242" y="2" relative="1" as="geometry">
            <mxPoint x="-1" as="offset" />
          </mxGeometry>
        </mxCell>
        <mxCell id="_urB2lo7H6_L3gV6wOiC-20" value="" style="endArrow=classic;html=1;entryX=0.333;entryY=0.983;entryDx=0;entryDy=0;entryPerimeter=0;" edge="1" parent="1" target="_urB2lo7H6_L3gV6wOiC-3">
          <mxGeometry width="50" height="50" relative="1" as="geometry">
            <mxPoint x="170" y="240" as="sourcePoint" />
            <mxPoint x="220" y="190" as="targetPoint" />
          </mxGeometry>
        </mxCell>
        <mxCell id="_urB2lo7H6_L3gV6wOiC-21" value="shareto(note-id, listusers" style="edgeLabel;html=1;align=center;verticalAlign=middle;resizable=0;points=[];" vertex="1" connectable="0" parent="_urB2lo7H6_L3gV6wOiC-20">
          <mxGeometry x="-0.1987" y="-5" relative="1" as="geometry">
            <mxPoint y="-1" as="offset" />
          </mxGeometry>
        </mxCell>
        <mxCell id="_urB2lo7H6_L3gV6wOiC-22" value="" style="endArrow=classic;html=1;" edge="1" parent="1" target="_urB2lo7H6_L3gV6wOiC-8">
          <mxGeometry width="50" height="50" relative="1" as="geometry">
            <mxPoint x="400" y="365" as="sourcePoint" />
            <mxPoint x="450" y="315" as="targetPoint" />
          </mxGeometry>
        </mxCell>
        <mxCell id="_urB2lo7H6_L3gV6wOiC-25" value="check view" style="edgeLabel;html=1;align=center;verticalAlign=middle;resizable=0;points=[];" vertex="1" connectable="0" parent="_urB2lo7H6_L3gV6wOiC-22">
          <mxGeometry x="-0.4351" y="-2" relative="1" as="geometry">
            <mxPoint as="offset" />
          </mxGeometry>
        </mxCell>
        <mxCell id="_urB2lo7H6_L3gV6wOiC-29" value="1" style="edgeLabel;html=1;align=center;verticalAlign=middle;resizable=0;points=[];" vertex="1" connectable="0" parent="_urB2lo7H6_L3gV6wOiC-22">
          <mxGeometry x="-0.8748" relative="1" as="geometry">
            <mxPoint as="offset" />
          </mxGeometry>
        </mxCell>
        <mxCell id="_urB2lo7H6_L3gV6wOiC-26" value="" style="endArrow=classic;html=1;exitX=0;exitY=0;exitDx=0;exitDy=52.5;exitPerimeter=0;entryX=1;entryY=0.5;entryDx=0;entryDy=0;" edge="1" parent="1" source="_urB2lo7H6_L3gV6wOiC-8" target="_urB2lo7H6_L3gV6wOiC-2">
          <mxGeometry width="50" height="50" relative="1" as="geometry">
            <mxPoint x="400" y="360" as="sourcePoint" />
            <mxPoint x="450" y="310" as="targetPoint" />
          </mxGeometry>
        </mxCell>
        <mxCell id="_urB2lo7H6_L3gV6wOiC-30" value="2" style="edgeLabel;html=1;align=center;verticalAlign=middle;resizable=0;points=[];" vertex="1" connectable="0" parent="_urB2lo7H6_L3gV6wOiC-26">
          <mxGeometry x="-0.7652" y="1" relative="1" as="geometry">
            <mxPoint as="offset" />
          </mxGeometry>
        </mxCell>
        <mxCell id="_urB2lo7H6_L3gV6wOiC-28" value="" style="endArrow=classic;html=1;exitX=0;exitY=0.963;exitDx=0;exitDy=0;exitPerimeter=0;entryX=1;entryY=0.25;entryDx=0;entryDy=0;" edge="1" parent="1" source="_urB2lo7H6_L3gV6wOiC-4" target="_urB2lo7H6_L3gV6wOiC-2">
          <mxGeometry width="50" height="50" relative="1" as="geometry">
            <mxPoint x="400" y="360" as="sourcePoint" />
            <mxPoint x="450" y="310" as="targetPoint" />
          </mxGeometry>
        </mxCell>
        <mxCell id="_urB2lo7H6_L3gV6wOiC-32" value="4" style="edgeLabel;html=1;align=center;verticalAlign=middle;resizable=0;points=[];" vertex="1" connectable="0" parent="_urB2lo7H6_L3gV6wOiC-28">
          <mxGeometry x="0.3413" y="2" relative="1" as="geometry">
            <mxPoint x="-1" as="offset" />
          </mxGeometry>
        </mxCell>
        <mxCell id="_urB2lo7H6_L3gV6wOiC-34" value="" style="endArrow=classic;html=1;exitX=0;exitY=0.75;exitDx=0;exitDy=0;entryX=0.75;entryY=1;entryDx=0;entryDy=0;" edge="1" parent="1" source="_urB2lo7H6_L3gV6wOiC-2" target="_urB2lo7H6_L3gV6wOiC-14">
          <mxGeometry width="50" height="50" relative="1" as="geometry">
            <mxPoint x="270" y="360" as="sourcePoint" />
            <mxPoint x="160" y="360" as="targetPoint" />
          </mxGeometry>
        </mxCell>
        <mxCell id="_urB2lo7H6_L3gV6wOiC-35" value="5" style="edgeLabel;html=1;align=center;verticalAlign=middle;resizable=0;points=[];" vertex="1" connectable="0" parent="_urB2lo7H6_L3gV6wOiC-34">
          <mxGeometry x="-0.7061" y="3" relative="1" as="geometry">
            <mxPoint as="offset" />
          </mxGeometry>
        </mxCell>
      </root>
    </mxGraphModel>
  </diagram>
</mxfile>
